# xmcd
#
# Track frame offsets:
#	150
#	29772
#	54870
#	74439
#	96692
#	119362
#	140226
#	158518
#	181729
#	197211
#	220990
#	237892
#	258425
#
# Disc length: 3685 seconds
#
# Revision: 0
# Processed by: cddbd v1.5.1PL0 Copyright (c) Steve Scherf et al.
# Submitted via: MusicWizard 7.2.0
#
DISCID=c50e630d
DTITLE=Phil Collins - Love Songs I U II [CD 2/2)
DYEAR=1900
DGENRE=Ambient
TTITLE0=Testify
TTITLE1=True Colours
TTITLE2=You'll Be In My Heart
TTITLE3=If Leaving Me Is Easy
TTITLE4=I've Been Trying
TTITLE5=I've Forgotten Everything
TTITLE6=Somewhere
TTITLE7=Least You Can Do
TTITLE8=2 Hearts
TTITLE9=Separate Lives (Live)
TTITLE10=My Girl (Live)
TTITLE11=Always (Live)
TTITLE12=The Way You Look Tonight (Live
EXTD=
EXTT0=
EXTT1=
EXTT2=
EXTT3=
EXTT4=
EXTT5=
EXTT6=
EXTT7=
EXTT8=
EXTT9=
EXTT10=
EXTT11=
EXTT12=
PLAYORDER=
